<svg preserveAspectRatio="none" overflow="visible" style="display: block;" width="20" height="20" viewBox="0 0 20 20" fill="none" xmlns="http://www.w3.org/2000/svg">
<g id="UserPlus">
<path id="Vector" d="M20 10.625C20 10.7908 19.9341 10.9497 19.8169 11.0669C19.6997 11.1842 19.5408 11.25 19.375 11.25H18.125V12.5C18.125 12.6658 18.0591 12.8247 17.9419 12.9419C17.8247 13.0592 17.6658 13.125 17.5 13.125C17.3342 13.125 17.1753 13.0592 17.0581 12.9419C16.9408 12.8247 16.875 12.6658 16.875 12.5V11.25H15.625C15.4592 11.25 15.3003 11.1842 15.1831 11.0669C15.0658 10.9497 15 10.7908 15 10.625C15 10.4592 15.0658 10.3003 15.1831 10.1831C15.3003 10.0658 15.4592 10 15.625 10H16.875V8.75C16.875 8.58424 16.9408 8.42527 17.0581 8.30806C17.1753 8.19085 17.3342 8.125 17.5 8.125C17.6658 8.125 17.8247 8.19085 17.9419 8.30806C18.0591 8.42527 18.125 8.58424 18.125 8.75V10H19.375C19.5408 10 19.6997 10.0658 19.8169 10.1831C19.9341 10.3003 20 10.4592 20 10.625ZM15.4789 15.2227C15.5856 15.3497 15.6375 15.5139 15.6231 15.6791C15.6088 15.8444 15.5294 15.9972 15.4023 16.1039C15.2753 16.2106 15.1111 16.2625 14.9459 16.2481C14.7806 16.2338 14.6278 16.1544 14.5211 16.0273C12.9492 14.1555 10.7883 13.125 8.4375 13.125C6.08672 13.125 3.92578 14.1555 2.35391 16.0273C2.2472 16.1543 2.09445 16.2336 1.92925 16.2479C1.76406 16.2621 1.59996 16.2102 1.47305 16.1035C1.34614 15.9968 1.26681 15.8441 1.25253 15.6789C1.23824 15.5137 1.29017 15.3496 1.39687 15.2227C2.56406 13.8336 4.01562 12.8469 5.62891 12.3188C4.64914 11.7085 3.89478 10.7958 3.47995 9.71865C3.06512 8.64151 3.01238 7.45857 3.32973 6.34879C3.64707 5.23901 4.31723 4.26278 5.2388 3.5678C6.16038 2.87281 7.28324 2.49688 8.4375 2.49688C9.59176 2.49688 10.7146 2.87281 11.6362 3.5678C12.5578 4.26278 13.2279 5.23901 13.5453 6.34879C13.8626 7.45857 13.8099 8.64151 13.395 9.71865C12.9802 10.7958 12.2259 11.7085 11.2461 12.3188C12.8594 12.8469 14.3109 13.8336 15.4789 15.2227ZM8.4375 11.875C9.24099 11.875 10.0264 11.6367 10.6945 11.1903C11.3626 10.744 11.8833 10.1095 12.1908 9.36715C12.4982 8.62483 12.5787 7.80799 12.4219 7.01995C12.2652 6.2319 11.8783 5.50803 11.3101 4.93988C10.742 4.37173 10.0181 3.98481 9.23005 3.82806C8.44201 3.67131 7.62517 3.75176 6.88285 4.05924C6.14052 4.36672 5.50605 4.88742 5.05965 5.5555C4.61326 6.22357 4.375 7.00901 4.375 7.8125C4.37624 8.88956 4.80465 9.92215 5.56625 10.6838C6.32785 11.4453 7.36044 11.8738 8.4375 11.875Z" fill="#838383"/>
</g>
</svg>
